<svg width="24" height="24" viewBox="0 0 24 24" fill="none" xmlns="http://www.w3.org/2000/svg">
<path fill-rule="evenodd" clip-rule="evenodd" d="M16.3846 9.30771C17.4467 9.30771 18.3077 8.44672 18.3077 7.38463C18.3077 6.32255 17.4467 5.46156 16.3846 5.46156C15.3225 5.46156 14.4615 6.32255 14.4615 7.38463C14.4615 8.44672 15.3225 9.30771 16.3846 9.30771ZM19.8462 7.38463C19.8462 9.29639 18.2964 10.8462 16.3846 10.8462C14.4729 10.8462 12.9231 9.29639 12.9231 7.38463C12.9231 5.47288 14.4729 3.9231 16.3846 3.9231C18.2964 3.9231 19.8462 5.47288 19.8462 7.38463Z" fill="white"/>
<path fill-rule="evenodd" clip-rule="evenodd" d="M7.15385 18.5385C8.21593 18.5385 9.07692 17.6775 9.07692 16.6154C9.07692 15.5533 8.21593 14.6923 7.15385 14.6923C6.09176 14.6923 5.23077 15.5533 5.23077 16.6154C5.23077 17.6775 6.09176 18.5385 7.15385 18.5385ZM10.6154 16.6154C10.6154 18.5272 9.0656 20.0769 7.15385 20.0769C5.24209 20.0769 3.69231 18.5272 3.69231 16.6154C3.69231 14.7036 5.24209 13.1539 7.15385 13.1539C9.0656 13.1539 10.6154 14.7036 10.6154 16.6154Z" fill="white"/>
<path fill-rule="evenodd" clip-rule="evenodd" d="M18.6923 7.6154C18.6923 7.23305 19.0023 6.9231 19.3846 6.9231L21.2308 6.9231C21.6131 6.9231 21.9231 7.23305 21.9231 7.6154C21.9231 7.99775 21.6131 8.30771 21.2308 8.30771H19.3846C19.0023 8.30771 18.6923 7.99775 18.6923 7.6154Z" fill="white"/>
<path fill-rule="evenodd" clip-rule="evenodd" d="M2 7.6154C2 7.19057 2.3444 6.84617 2.76923 6.84617H12.9231C13.3479 6.84617 13.6923 7.19057 13.6923 7.6154C13.6923 8.04024 13.3479 8.38463 12.9231 8.38463H2.76923C2.3444 8.38463 2 8.04024 2 7.6154Z" fill="white"/>
<path fill-rule="evenodd" clip-rule="evenodd" d="M2 16.8462C2 16.4213 2.3444 16.0769 2.76923 16.0769H3.69231C4.11714 16.0769 4.46154 16.4213 4.46154 16.8462C4.46154 17.271 4.11714 17.6154 3.69231 17.6154H2.76923C2.3444 17.6154 2 17.271 2 16.8462Z" fill="white"/>
<path fill-rule="evenodd" clip-rule="evenodd" d="M9.38462 16.8462C9.38462 16.4213 9.72901 16.0769 10.1538 16.0769L21.2308 16.0769C21.6556 16.0769 22 16.4213 22 16.8462C22 17.271 21.6556 17.6154 21.2308 17.6154L10.1538 17.6154C9.72901 17.6154 9.38462 17.271 9.38462 16.8462Z" fill="white"/>
</svg>
