<svg width="24" height="24" viewBox="0 0 24 24" fill="none" xmlns="http://www.w3.org/2000/svg">
<path fill-rule="evenodd" clip-rule="evenodd" d="M0.25 10.1667C0.25 4.68984 4.68984 0.25 10.1667 0.25C15.6435 0.25 20.0833 4.68984 20.0833 10.1667C20.0833 12.6351 19.1814 14.8929 17.6892 16.6285L23.5304 22.4697C23.8233 22.7626 23.8233 23.2375 23.5304 23.5303C23.2375 23.8232 22.7626 23.8232 22.4698 23.5303L16.6286 17.6891C14.893 19.1814 12.6351 20.0833 10.1667 20.0833C4.68984 20.0833 0.25 15.6435 0.25 10.1667ZM16.1805 16.0552C16.1575 16.0733 16.1354 16.0929 16.1142 16.1141C16.093 16.1353 16.0734 16.1575 16.0552 16.1804C14.5373 17.6669 12.459 18.5833 10.1667 18.5833C5.51827 18.5833 1.75 14.8151 1.75 10.1667C1.75 5.51827 5.51827 1.75 10.1667 1.75C14.8151 1.75 18.5833 5.51827 18.5833 10.1667C18.5833 12.459 17.6669 14.5373 16.1805 16.0552Z" fill="#000824"/>
</svg>
